<svg id="Layer_1" data-name="Layer 1" xmlns="http://www.w3.org/2000/svg" viewBox="0 0 200 78"><defs><style>.cls-1{fill:#cf0a2c;}</style></defs><path class="cls-1" d="M27.981,33.057l9.424-9.424Q48.031,34.261,58.658,44.886L37.432,66.112,28,56.68,39.642,44.887Z"/><path class="cls-1" d="M12.23,14.361h.557c2.915,0,5.831.048,8.744-.017a4.908,4.908,0,0,1,4.762,3.491,8.926,8.926,0,0,1,.391,2.483q.037,17.368.016,34.737c0,.137-.011.273-.023.542-.556-.562-1.03-1.045-1.506-1.526q-3.159-3.192-6.317-6.384c-2.118-2.138-4.244-4.269-6.352-6.417a1.036,1.036,0,0,1-.282-.653q-.021-12.9-.012-25.8C12.208,14.689,12.22,14.564,12.23,14.361Z"/><path d="M147.132,51.166v15.16h-4.021V42.2h4.973q.25,1.666.5,3.335a1.452,1.452,0,0,0,.107.461c1.014,1.872,2.037,3.739,3.146,5.593V42.128H155.9V66.3h-4.033v-.528c0-1.848.015-3.695-.014-5.543a2.517,2.517,0,0,0-.286-1.126c-1.165-2.155-2.367-4.289-3.549-6.434-.275-.5-.521-1.012-.781-1.518Z"/><path d="M171.893,42.1v7.885h-3.877V46.223a1.812,1.812,0,0,0-.314-.063c-.956,0-1.912-.013-2.868,0-.7.01-.966.277-.967.957q-.006,6.979,0,13.957a.967.967,0,0,0,.982,1.07c1,.06,2,.015,3.03.015V58.15h-1.51v-3.9h5.515V66.36h-7.9a3.978,3.978,0,0,1-4.23-4.125q-.049-8.029,0-16.059a4.089,4.089,0,0,1,4.177-4.08q3.727,0,7.456,0Z"/><path d="M123.233,66.239H119.25V55.969h-4.01V66.217h-4.022V42.128h4V51.9h4V42.134h4.018Z"/><path d="M91.886,28.215V38.6h-4V14.477h4V24.736l.106.02q.63-1.482,1.261-2.962c.99-2.327,1.976-4.656,2.979-6.977.067-.156.261-.362.4-.364,1.368-.028,2.737-.017,4.183-.017-.061.186-.1.329-.154.464q-2.225,5.533-4.46,11.063a1.278,1.278,0,0,0,.015,1.078q2.382,5.546,4.735,11.1c.061.143.11.291.184.49-1.428,0-2.8.011-4.163-.018-.134,0-.315-.224-.388-.384Q94.374,33.42,92.189,28.6c-.063-.139-.137-.272-.206-.408Z"/><path d="M78.957,66.25c.232-.756.444-1.452.66-2.147.989-3.173,1.983-6.345,2.957-9.522a1.4,1.4,0,0,0-.006-.776q-1.7-5.542-3.424-11.076c-.056-.179-.106-.36-.177-.6.213-.011.378-.027.543-.027,1.131,0,2.263.015,3.393-.011a.5.5,0,0,1,.583.446c.7,2.5,1.415,4.987,2.217,7.5l2.388-7.915h4.435c-.052.192-.091.355-.14.514q-1.71,5.49-3.426,10.976a1.753,1.753,0,0,0,.008,1.109q1.733,5.53,3.437,11.072c.042.135.076.273.129.466-1.239,0-2.443.008-3.646,0-.905-.008-.687.148-.943-.709-.664-2.225-1.31-4.455-1.964-6.683a1.1,1.1,0,0,0-.251-.478c-.174.584-.351,1.167-.523,1.752-.554,1.892-1.113,3.783-1.652,5.68-.093.324-.22.457-.583.45C81.656,66.235,80.338,66.25,78.957,66.25Z"/><path d="M67.56,46.152v5.1h6.145v4h-6.13v6.945h7.97v4.022H63.467V42.138H75.556v4.014Z"/><path d="M116.233,14.476v3.98h-8.009v5.092h6.108V27.6h-6.107v7h7.994v4H104.172V14.476Z"/><path d="M185.964,55.285H179.8v6.92h8v4H175.765V42.124h12.027v4.031h-8v5.072h6.171Z"/><path d="M107.438,62.208v4.128c-.189.009-.358.023-.528.023q-3.751,0-7.5,0a3.99,3.99,0,0,1-4.093-4.068q-.014-8.031,0-16.061a4.069,4.069,0,0,1,3.933-4.119c2.659-.06,5.321-.014,7.982-.011a1.182,1.182,0,0,1,.2.038v4.018H106.9q-3.156,0-6.31,0c-.941,0-1.2.243-1.2,1.188q-.009,6.764,0,13.527c0,.942.421,1.328,1.458,1.333,1.991.01,3.983,0,5.975,0Z"/><path d="M79.963,14.454h4.019V38.59H79.963Z"/><path d="M75.977,29.129a4.673,4.673,0,0,0-1.451-3.038,6,6,0,0,0-.54-.439,4.823,4.823,0,0,0,2-3.7,16.346,16.346,0,0,0,.017-2.1,5.519,5.519,0,0,0-4.3-5.2,9.007,9.007,0,0,0-1.89-.208c-2.1-.025-4.2-.01-6.339-.01V38.6c2.394,0,4.758.126,7.1-.032a5.676,5.676,0,0,0,5.347-5.152A26.249,26.249,0,0,0,75.977,29.129ZM67.522,18.518a24.992,24.992,0,0,1,2.808.023,1.916,1.916,0,0,1,1.576,1.8,9.232,9.232,0,0,1,0,1.478,1.862,1.862,0,0,1-1.712,1.7c-.871.045-1.746.01-2.674.01Zm4.386,14.176a1.885,1.885,0,0,1-1.755,1.824c-.126.011-.254.007-.382.007H67.522V27.573a21.48,21.48,0,0,1,3.012.167,1.758,1.758,0,0,1,1.37,1.8C71.956,30.592,71.948,31.645,71.908,32.694Z"/><path d="M139.693,63.629a52.018,52.018,0,0,0-.652-5.542c-1.158-5.248-2.46-10.463-3.692-15.695-.073-.313-.225-.361-.494-.359-1.052.009-2.1.031-3.154-.009-.45-.017-.591.155-.685.557-.782,3.361-1.552,6.725-2.389,10.071-.915,3.658-1.932,7.291-1.986,11.1-.012.819-.124,1.636-.192,2.473h4.356c.134-1.468.267-2.917.4-4.357h4.009l.37,4.36h4.371C139.865,65.337,139.787,64.482,139.693,63.629Zm-8.367-5.922,1.776-8.838.093.005c.649,2.929,1.3,5.859,1.955,8.833Z"/></svg>